<?xml version="1.0" encoding="utf-8"?>
<!-- Generator: Adobe Illustrator 18.0.0, SVG Export Plug-In . SVG Version: 6.00 Build 0)  -->
<!DOCTYPE svg PUBLIC "-//W3C//DTD SVG 1.1//EN" "http://www.w3.org/Graphics/SVG/1.1/DTD/svg11.dtd">
<svg version="1.1" id="圖層_1" xmlns="http://www.w3.org/2000/svg" xmlns:xlink="http://www.w3.org/1999/xlink" x="0px" y="0px"
	 viewBox="0 0 1280 800" style="enable-background:new 0 0 1280 800;" xml:space="preserve">
<path style="fill:none;stroke:#000000;stroke-width:3;stroke-linecap:round;stroke-linejoin:round;stroke-miterlimit:10;" d="
	M2034.5,2445v-63.2l-146.4,110.5H1804c-5.4,0-9.7,4.3-9.7,9.7v116.4c0,5.4,4.3,9.7,9.7,9.7h84.1l146.4,110.5v-99.8"/>
<polyline style="fill:none;stroke:#000000;stroke-width:3;stroke-linecap:round;stroke-linejoin:round;stroke-miterlimit:10;" points="
	2077.9,2441.5 1986.8,2543.1 2082.3,2543.1 1988.7,2642.9 "/>
<path style="fill:#292C77;" d="M581.4,392.3l-49.5-37.4c-1.7-1.3-3.7-1.9-5.8-1.9l-84.2-0.1l0.1-116.6h84.1c2.1,0,4.1-0.7,5.8-1.9
	l131-98.9v129c0,5.3,4.3,9.6,9.6,9.6s9.6-4.3,9.6-9.6V116.3c0-3.6-2.1-7-5.3-8.6c-3.3-1.6-7.2-1.3-10.1,0.9L522.9,217.1H442
	c-10.6,0-19.3,8.7-19.3,19.3v116.4c0,10.6,8.7,19.3,19.3,19.3h80.9l46.9,35.4c1.7,1.3,3.8,1.9,5.8,1.9c2.9,0,5.8-1.3,7.7-3.8
	C586.5,401.5,585.7,395.5,581.4,392.3z M804,298.6c-13.4-9.8-28.4-16.9-44.6-21c-10.5-2.7-21.3-4-32-4c-32.9,0-64.1,12.8-87.6,34.3
	c-0.2,0.1-0.4,0.2-0.6,0.3c-0.2,0.2-0.3,0.4-0.4,0.6c-13.9,13-25.1,29-32.2,47.3c-1.9,4.9-3.6,10.1-4.9,15.4
	C584,441,626.1,511.7,695.5,529.3c10.5,2.7,21.3,4,32,4c33,0,63.6-12.4,86.8-33.4c0,0,0,0,0,0c0,0,0,0,0,0
	c18.6-16.7,32.4-38.9,38.9-64.5C866.4,383.8,847,330.1,804,298.6z M727.5,514.1c-9.2,0-18.3-1.2-27.3-3.4c-59.1-15-95-75.3-80-134.4
	c1.1-4.5,2.6-8.9,4.2-13.1c4.9-12.6,12.1-24,21-33.8l148.5,162.5C775.3,505.9,752.2,514.1,727.5,514.1z M834.6,430.7
	c-4.7,18.6-14,35.1-26.4,48.4L659.5,316.4c19.1-14.8,42.8-23.5,67.8-23.5c9.1,0,18.3,1.2,27.3,3.4c13.8,3.5,26.6,9.5,38,17.9
	C829.3,340.9,845.8,386.7,834.6,430.7z"/>
</svg>
