<?xml version="1.0" encoding="utf-8"?>
<!-- Generator: Adobe Illustrator 18.0.0, SVG Export Plug-In . SVG Version: 6.00 Build 0)  -->
<!DOCTYPE svg PUBLIC "-//W3C//DTD SVG 1.1//EN" "http://www.w3.org/Graphics/SVG/1.1/DTD/svg11.dtd">
<svg version="1.1" id="圖層_1" xmlns="http://www.w3.org/2000/svg" xmlns:xlink="http://www.w3.org/1999/xlink" x="0px" y="0px"
	 viewBox="0 0 1280 800" style="enable-background:new 0 0 1280 800;" xml:space="preserve">
<path style="fill:#292C77;" d="M658.2,133c-3.3-1.6-7.2-1.3-10.1,0.9L504.4,242.5h-80.9c-10.6,0-19.3,8.7-19.3,19.3v116.4
	c0,10.6,8.7,19.3,19.3,19.3h80.9L648.2,506c1.7,1.3,3.7,1.9,5.8,1.9c1.5,0,2.9-0.3,4.3-1c3.3-1.6,5.3-4.9,5.3-8.6V141.6
	C663.6,138,661.5,134.6,658.2,133z M644.4,479.1l-131-98.9c-1.7-1.3-3.7-1.9-5.8-1.9l-84.2-0.1l0.1-116.5h84.1
	c2.1,0,4.1-0.7,5.8-1.9l131-98.9L644.4,479.1L644.4,479.1z M717,241.3c-3.8-3.8-9.8-3.8-13.6,0c-3.8,3.8-3.8,9.8,0,13.6
	c17.4,17.4,27,40.5,27,65.1c0,24.6-9.6,47.7-27,65.1c-3.8,3.8-3.8,9.8,0,13.6c1.9,1.9,4.3,2.8,6.8,2.8c2.5,0,4.9-0.9,6.8-2.8
	c21-21,32.6-49,32.6-78.7C749.6,290.3,738,262.3,717,241.3z M761.1,197.2c-3.8-3.8-9.8-3.8-13.6,0c-3.8,3.7-3.8,9.8,0,13.6
	c29.2,29.2,45.2,68,45.2,109.2c0,41.3-16.1,80-45.2,109.2c-3.8,3.8-3.8,9.8,0,13.6c1.9,1.9,4.3,2.8,6.8,2.8c2.5,0,4.9-0.9,6.8-2.8
	C793.9,410,812,366.4,812,320S793.9,230,761.1,197.2z M806.4,151.9c-3.8-3.8-9.8-3.8-13.6,0c-3.8,3.7-3.8,9.8,0,13.6
	c85.2,85.2,85.2,223.8,0,309c-3.8,3.8-3.8,9.8,0,13.6c1.9,1.9,4.3,2.8,6.8,2.8c2.5,0,4.9-0.9,6.8-2.8
	C899,395.4,899,244.6,806.4,151.9z"/>
</svg>
